<svg width="128" height="128" xmlns="http://www.w3.org/2000/svg" xml:space="preserve" version="1.1">
 <g>
  <title>Layer 1</title>
  <path id="svg_1" fill="url(#svg_10)" class="st2" d="m8.2,-1l111.6,0c4.5,0 8.2,4 8.2,8.9l0,110.2c0,4.9 -3.7,8.9 -8.2,8.9l-111.6,0c-4.5,0 -8.2,-4 -8.2,-8.9l0,-110.2c0,-4.9 3.7,-8.9 8.2,-8.9z"/>
  <g id="svg_2">
   <path id="svg_3" fill="#fff" class="st0" d="m92.4,80.8c-1,-1 -2.4,-1.7 -3.8,-2c-1.4,-0.3 -2.9,-0.1 -4.3,0.4c-1.3,0.6 -2.5,1.5 -3.3,2.8c-0.8,1.2 -1.3,2.7 -1.3,4.1c0,1 0.2,1.9 0.6,2.8c0.4,0.9 0.9,1.7 1.6,2.4c0.7,0.7 1.5,1.2 2.4,1.6c0.9,0.4 1.9,0.6 2.8,0.6c1.5,0 2.9,-0.4 4.1,-1.3c1.2,-0.8 2.2,-2 2.7,-3.3c0.6,-1.4 0.7,-2.8 0.4,-4.3c-0.1,-1.4 -0.8,-2.7 -1.9,-3.8zm-5.2,8.9c-2,0 -3.6,-1.7 -3.6,-3.6c0,-2 1.7,-3.6 3.6,-3.6c2,0 3.7,1.7 3.7,3.6c0,2 -1.8,3.6 -3.7,3.6z"/>
   <path id="svg_4" fill="#fff" class="st0" d="m105.5,76.5l-2.1,0c-2,0 -2.9,-0.9 -3.9,-1.8c-1.6,-1.7 -3.5,-3.2 -5.6,-4.1c-2.1,-0.9 -4.5,-1.4 -6.8,-1.4l-60,-0.1c-0.2,0 -0.4,0.1 -0.6,0.2c-0.2,0.1 -0.3,0.2 -0.5,0.3c-0.1,0.1 -0.2,0.3 -0.3,0.5c-0.1,0.2 -0.2,0.4 -0.2,0.6l0,2.8l0,7.2c0,1.1 -0.9,0.7 -0.9,2.4l0,0.9c0,1.2 0.7,1.8 1.7,1.8l2,0c0.3,0 0.9,-0.2 0.9,-0.9c0,-6.1 5,-11.1 10.9,-11.1c5.8,0 11.1,4.7 11.1,11.1c0,0.6 0.4,0.9 0.9,0.9l22.9,0c0.6,0 0.9,-0.4 0.9,-0.9c0,-5.8 4.6,-11.1 11.1,-11.1c6.1,0 11,5 11,11.1c0,0.4 0.2,0.9 0.9,0.9l6.5,0c1,0 1.8,-0.9 1.8,-1.9l0,-5.5c0.1,-1.2 -0.5,-1.9 -1.7,-1.9z"/>
   <path id="svg_5" fill="#fff" class="st0" d="m45.6,80.8c-1,-1 -2.4,-1.7 -3.8,-2c-1.4,-0.3 -2.9,-0.1 -4.3,0.4c-1.4,0.6 -2.5,1.5 -3.3,2.7c-0.8,1.2 -1.3,2.7 -1.3,4.1c0,1 0.2,1.9 0.6,2.8c0.4,0.9 0.9,1.7 1.6,2.4c0.7,0.7 1.5,1.2 2.4,1.6c0.9,0.4 1.9,0.6 2.8,0.6c1.5,0 2.9,-0.4 4.1,-1.3c1.2,-0.8 2.2,-2 2.7,-3.3c0.6,-1.4 0.7,-2.8 0.4,-4.3c-0.2,-1.3 -0.9,-2.6 -1.9,-3.7zm-5.3,8.9c-2,0 -3.6,-1.7 -3.6,-3.6c0,-2 1.7,-3.6 3.6,-3.6c2,0 3.7,1.7 3.7,3.6c0,2 -1.7,3.6 -3.7,3.6z"/>
   <path id="svg_6" fill="#fff" class="st0" d="m26,63.6c0.1,0.1 0.3,0.3 0.5,0.3c0.2,0.1 0.4,0.1 0.6,0.1l60,0c5.2,-0.1 10.3,2 14.1,5.5c0.6,0.6 1.4,1.8 2.5,1.8l1.2,0c0.6,0 0.8,-0.3 0.8,-0.9l0,-8.5c0,-12 -7.3,-21.6 -19.7,-26.3c-12.9,-5.1 -43.5,-3.2 -55.8,0.1c-2,0.5 -4.7,1.5 -4.7,5.2l0,19.7l0.1,1.9c0,0.4 0.1,0.8 0.4,1.1zm49.8,-20.6c0,-0.6 0.2,-0.9 0.9,-0.9l3.8,0c9.2,0 15.5,6.3 19,15.6c0.2,0.5 0.1,1.3 -0.9,1.3l-21.9,0c-0.6,0 -0.9,-0.6 -0.9,-0.9l0,-15.1zm-22.4,0c0,-0.1 0,-0.3 0.1,-0.4c0,-0.1 0.1,-0.2 0.2,-0.3c0.1,-0.1 0.2,-0.2 0.3,-0.2c0.1,0 0.2,-0.1 0.4,-0.1l16.2,0c0.6,0 1,0.4 1,0.9l0,14.8c0,0.5 -0.4,1 -1,1l-16.3,0c-0.5,0 -0.9,-0.2 -0.9,-1l0,-14.7zm-22.6,0c0,-0.2 0,-0.9 0.9,-0.9l16.6,0c0.6,0 0.9,0.4 0.9,0.9l0,15c0,0.3 -0.2,0.9 -0.9,0.9l-16.7,0c-0.7,0 -0.9,-0.6 -0.9,-0.9l0,-15l0.1,0z"/>
  </g>
 </g>
 <defs>
  <linearGradient id="svg_10" x1="0" y1="0" x2="1" y2="0" spreadMethod="pad">
   <stop offset="0" stop-opacity="0.98828" stop-color="#050000"/>
   <stop offset="0.07813" stop-opacity="0.98047" stop-color="#2d0201"/>
   <stop offset="0.16016" stop-opacity="0.98438" stop-color="#560402"/>
   <stop offset="0.29297" stop-opacity="0.98828" stop-color="#bc0903"/>
   <stop stop-color="#e60f05" offset="0.375" stop-opacity="0.99219"/>
   <stop stop-color="#bf005f" stop-opacity="0.98047" offset="0.44141"/>
   <stop stop-color="#7f007f" stop-opacity="0.96484" offset="0.5625"/>
   <stop stop-color="#3d023d" stop-opacity="0.98047" offset="0.76563"/>
   <stop stop-color="#1c011c" stop-opacity="0.99219" offset="0.89844"/>
   <stop stop-color="#000005" stop-opacity="0.99609" offset="1"/>
   <stop stop-color="#2b032b" stop-opacity="0.9375" offset="1"/>
   <stop stop-color="#000000" stop-opacity="0.99609" offset="1"/>
   <stop stop-color="0" stop-opacity="0" offset="NaN"/>
   <stop stop-color="0" stop-opacity="0" offset="NaN"/>
   <stop stop-color="0" stop-opacity="0" offset="NaN"/>
   <stop stop-color="0" stop-opacity="0" offset="NaN"/>
   <stop stop-color="0" stop-opacity="0" offset="NaN"/>
   <stop stop-color="0" stop-opacity="0" offset="NaN"/>
   <stop stop-color="0" stop-opacity="0" offset="NaN"/>
   <stop stop-color="0" stop-opacity="0" offset="NaN"/>
   <stop stop-color="0" stop-opacity="0" offset="NaN"/>
   <stop stop-color="0" stop-opacity="0" offset="NaN"/>
   <stop stop-color="0" stop-opacity="0" offset="NaN"/>
   <stop stop-color="0" stop-opacity="0" offset="NaN"/>
   <stop stop-color="0" stop-opacity="0" offset="NaN"/>
   <stop stop-color="0" stop-opacity="0" offset="NaN"/>
   <stop stop-color="0" stop-opacity="0" offset="NaN"/>
   <stop stop-color="0" stop-opacity="0" offset="NaN"/>
   <stop stop-color="0" stop-opacity="0" offset="NaN"/>
   <stop stop-color="0" stop-opacity="0" offset="NaN"/>
   <stop stop-color="0" stop-opacity="0" offset="NaN"/>
   <stop stop-color="0" stop-opacity="0" offset="NaN"/>
   <stop stop-color="0" stop-opacity="0" offset="NaN"/>
   <stop stop-color="0" stop-opacity="0" offset="NaN"/>
   <stop stop-color="0" stop-opacity="0" offset="NaN"/>
   <stop stop-color="0" stop-opacity="0" offset="NaN"/>
   <stop stop-color="0" stop-opacity="0" offset="NaN"/>
   <stop stop-color="0" stop-opacity="0" offset="NaN"/>
   <stop stop-color="0" stop-opacity="0" offset="NaN"/>
   <stop stop-color="0" stop-opacity="0" offset="NaN"/>
   <stop stop-color="0" stop-opacity="0" offset="NaN"/>
   <stop stop-color="0" stop-opacity="0" offset="NaN"/>
   <stop stop-color="0" stop-opacity="0" offset="NaN"/>
   <stop stop-color="0" stop-opacity="0" offset="NaN"/>
   <stop stop-color="0" stop-opacity="0" offset="NaN"/>
   <stop stop-color="0" stop-opacity="0" offset="NaN"/>
   <stop stop-color="0" stop-opacity="0" offset="NaN"/>
   <stop stop-color="0" stop-opacity="0" offset="NaN"/>
   <stop stop-color="0" stop-opacity="0" offset="NaN"/>
   <stop stop-color="0" stop-opacity="0" offset="NaN"/>
   <stop stop-color="0" stop-opacity="0" offset="NaN"/>
   <stop stop-color="0" stop-opacity="0" offset="NaN"/>
   <stop stop-color="0" stop-opacity="0" offset="NaN"/>
   <stop stop-color="0" stop-opacity="0" offset="NaN"/>
   <stop stop-color="0" stop-opacity="0" offset="NaN"/>
   <stop stop-color="0" stop-opacity="0" offset="NaN"/>
   <stop stop-color="0" stop-opacity="0" offset="NaN"/>
   <stop stop-color="0" stop-opacity="0" offset="NaN"/>
   <stop stop-color="0" stop-opacity="0" offset="NaN"/>
   <stop stop-color="0" stop-opacity="0" offset="NaN"/>
   <stop stop-color="0" stop-opacity="0" offset="NaN"/>
   <stop stop-color="0" stop-opacity="0" offset="NaN"/>
   <stop stop-color="0" stop-opacity="0" offset="NaN"/>
   <stop stop-color="0" stop-opacity="0" offset="NaN"/>
   <stop stop-color="0" stop-opacity="0" offset="NaN"/>
   <stop stop-color="0" stop-opacity="0" offset="NaN"/>
   <stop stop-color="0" stop-opacity="0" offset="NaN"/>
   <stop stop-color="0" stop-opacity="0" offset="NaN"/>
   <stop stop-color="0" stop-opacity="0" offset="NaN"/>
   <stop stop-color="0" stop-opacity="0" offset="NaN"/>
   <stop stop-color="0" stop-opacity="0" offset="NaN"/>
   <stop stop-color="0" stop-opacity="0" offset="NaN"/>
   <stop stop-color="0" stop-opacity="0" offset="NaN"/>
   <stop stop-color="0" stop-opacity="0" offset="NaN"/>
   <stop stop-color="0" stop-opacity="0" offset="NaN"/>
   <stop stop-color="0" stop-opacity="0" offset="NaN"/>
   <stop stop-color="0" stop-opacity="0" offset="NaN"/>
   <stop stop-color="0" stop-opacity="0" offset="NaN"/>
   <stop stop-color="0" stop-opacity="0" offset="NaN"/>
   <stop stop-color="0" stop-opacity="0" offset="NaN"/>
   <stop stop-color="0" stop-opacity="0" offset="NaN"/>
   <stop stop-color="0" stop-opacity="0" offset="NaN"/>
   <stop stop-color="0" stop-opacity="0" offset="NaN"/>
   <stop stop-color="0" stop-opacity="0" offset="NaN"/>
   <stop stop-color="0" stop-opacity="0" offset="NaN"/>
   <stop stop-color="0" stop-opacity="0" offset="NaN"/>
   <stop stop-color="0" stop-opacity="0" offset="NaN"/>
   <stop stop-color="0" stop-opacity="0" offset="NaN"/>
   <stop stop-color="0" stop-opacity="0" offset="NaN"/>
   <stop stop-color="0" stop-opacity="0" offset="NaN"/>
   <stop stop-color="0" stop-opacity="0" offset="NaN"/>
   <stop stop-color="0" stop-opacity="0" offset="NaN"/>
   <stop stop-color="0" stop-opacity="0" offset="NaN"/>
   <stop stop-color="0" stop-opacity="0" offset="NaN"/>
   <stop stop-color="0" stop-opacity="0" offset="NaN"/>
   <stop stop-color="0" stop-opacity="0" offset="NaN"/>
   <stop stop-color="0" stop-opacity="0" offset="NaN"/>
   <stop stop-color="0" stop-opacity="0" offset="NaN"/>
   <stop stop-color="0" stop-opacity="0" offset="NaN"/>
   <stop stop-color="0" stop-opacity="0" offset="NaN"/>
   <stop stop-color="0" stop-opacity="0" offset="NaN"/>
   <stop stop-color="0" stop-opacity="0" offset="NaN"/>
   <stop stop-color="0" stop-opacity="0" offset="NaN"/>
   <stop stop-color="0" stop-opacity="0" offset="NaN"/>
   <stop stop-color="0" stop-opacity="0" offset="NaN"/>
   <stop stop-color="0" stop-opacity="0" offset="NaN"/>
   <stop stop-color="0" stop-opacity="0" offset="NaN"/>
   <stop stop-color="0" stop-opacity="0" offset="NaN"/>
   <stop stop-color="0" stop-opacity="0" offset="NaN"/>
   <stop stop-color="0" stop-opacity="0" offset="NaN"/>
   <stop stop-color="0" stop-opacity="0" offset="NaN"/>
   <stop stop-color="0" stop-opacity="0" offset="NaN"/>
   <stop stop-color="0" stop-opacity="0" offset="NaN"/>
   <stop stop-color="0" stop-opacity="0" offset="NaN"/>
   <stop stop-color="0" stop-opacity="0" offset="NaN"/>
   <stop stop-color="0" stop-opacity="0" offset="NaN"/>
   <stop stop-color="0" stop-opacity="0" offset="NaN"/>
   <stop stop-color="0" stop-opacity="0" offset="NaN"/>
   <stop stop-color="0" stop-opacity="0" offset="NaN"/>
   <stop stop-color="0" stop-opacity="0" offset="NaN"/>
   <stop stop-color="0" stop-opacity="0" offset="NaN"/>
   <stop stop-color="0" stop-opacity="0" offset="NaN"/>
   <stop stop-color="0" stop-opacity="0" offset="NaN"/>
   <stop stop-color="0" stop-opacity="0" offset="NaN"/>
   <stop stop-color="0" stop-opacity="0" offset="NaN"/>
   <stop stop-color="0" stop-opacity="0" offset="NaN"/>
   <stop stop-color="0" stop-opacity="0" offset="NaN"/>
   <stop stop-color="0" stop-opacity="0" offset="NaN"/>
   <stop stop-color="0" stop-opacity="0" offset="NaN"/>
   <stop stop-color="0" stop-opacity="0" offset="NaN"/>
   <stop stop-color="0" stop-opacity="0" offset="NaN"/>
   <stop stop-color="0" stop-opacity="0" offset="NaN"/>
   <stop stop-color="0" stop-opacity="0" offset="NaN"/>
   <stop stop-color="0" stop-opacity="0" offset="NaN"/>
   <stop stop-color="0" stop-opacity="0" offset="NaN"/>
   <stop stop-color="0" stop-opacity="0" offset="NaN"/>
   <stop stop-color="0" stop-opacity="0" offset="NaN"/>
   <stop stop-color="0" stop-opacity="0" offset="NaN"/>
   <stop stop-color="0" stop-opacity="0" offset="NaN"/>
   <stop stop-color="0" stop-opacity="0" offset="NaN"/>
   <stop stop-color="0" stop-opacity="0" offset="NaN"/>
   <stop stop-color="0" stop-opacity="0" offset="NaN"/>
   <stop stop-color="0" stop-opacity="0" offset="NaN"/>
   <stop stop-color="0" stop-opacity="0" offset="NaN"/>
   <stop stop-color="0" stop-opacity="0" offset="NaN"/>
   <stop stop-color="0" stop-opacity="0" offset="NaN"/>
   <stop stop-color="0" stop-opacity="0" offset="NaN"/>
   <stop stop-color="0" stop-opacity="0" offset="NaN"/>
   <stop stop-color="0" stop-opacity="0" offset="NaN"/>
   <stop stop-color="0" stop-opacity="0" offset="NaN"/>
   <stop stop-color="0" stop-opacity="0" offset="NaN"/>
   <stop stop-color="0" stop-opacity="0" offset="NaN"/>
   <stop stop-color="0" stop-opacity="0" offset="NaN"/>
   <stop stop-color="0" stop-opacity="0" offset="NaN"/>
   <stop stop-color="0" stop-opacity="0" offset="NaN"/>
   <stop stop-color="0" stop-opacity="0" offset="NaN"/>
   <stop stop-color="0" stop-opacity="0" offset="NaN"/>
   <stop stop-color="0" stop-opacity="0" offset="NaN"/>
   <stop stop-color="0" stop-opacity="0" offset="NaN"/>
   <stop stop-color="0" stop-opacity="0" offset="NaN"/>
   <stop stop-color="0" stop-opacity="0" offset="NaN"/>
   <stop stop-color="0" stop-opacity="0" offset="NaN"/>
   <stop stop-color="0" stop-opacity="0" offset="NaN"/>
   <stop stop-color="0" stop-opacity="0" offset="NaN"/>
   <stop stop-color="0" stop-opacity="0" offset="NaN"/>
   <stop stop-color="0" stop-opacity="0" offset="NaN"/>
   <stop stop-color="0" stop-opacity="0" offset="NaN"/>
   <stop stop-color="0" stop-opacity="0" offset="NaN"/>
   <stop stop-color="0" stop-opacity="0" offset="NaN"/>
   <stop stop-color="0" stop-opacity="0" offset="NaN"/>
   <stop stop-color="0" stop-opacity="0" offset="NaN"/>
   <stop stop-color="0" stop-opacity="0" offset="NaN"/>
   <stop stop-color="0" stop-opacity="0" offset="NaN"/>
   <stop stop-color="0" stop-opacity="0" offset="NaN"/>
   <stop stop-color="0" stop-opacity="0" offset="NaN"/>
   <stop stop-color="0" stop-opacity="0" offset="NaN"/>
   <stop stop-color="0" stop-opacity="0" offset="NaN"/>
  </linearGradient>
 </defs>
</svg>